# xmcd
# 
# Track frame offsets:
#     150
#     19340
#     35017
# 
# Disc length: 720
# 
# Revision: 4
# Processed by: cddbd v1.5.2PL0 Copyright (c) Steve Scherf et al.
# Submitted via: fre:ac v1.0.17
# 
DISCID=2002ce03
DTITLE=GARNET CROW - 花は咲いて ただ揺れて
DYEAR=2009
DGENRE=JPop
TTITLE0=花は咲いて ただ揺れて
TTITLE1=愛に似てる
TTITLE2=花は咲いて ただ揺れて (Instrumental)
EXTD=
EXTT0=
EXTT1=
EXTT2=
PLAYORDER=
